<?xml version="1.0" encoding="utf-8"?>
<!-- Generator: Adobe Illustrator 27.2.0, SVG Export Plug-In . SVG Version: 6.00 Build 0)  -->
<svg version="1.1" id="Layer_1" xmlns="http://www.w3.org/2000/svg" xmlns:xlink="http://www.w3.org/1999/xlink" x="0px" y="0px"
	 viewBox="0 0 100 100" style="enable-background:new 0 0 100 100;" xml:space="preserve">
<style type="text/css">
	.st0{fill:none;stroke:#000000;stroke-miterlimit:10;}
	.st1{fill:none;}
	.st2{font-family:'MyriadPro-Regular';}
	.st3{font-size:3px;}
</style>
<g>
	<path d="M17.8,11c0.2,0.1,0.5,0.2,0.8,0.2c0.4,0,0.7-0.2,0.7-0.6c0-0.3-0.2-0.5-0.6-0.7c-0.6-0.2-0.9-0.5-0.9-1
		c0-0.5,0.4-0.9,1.1-0.9c0.3,0,0.6,0.1,0.7,0.2l-0.1,0.4c-0.1-0.1-0.3-0.2-0.6-0.2c-0.5,0-0.6,0.3-0.6,0.5c0,0.3,0.2,0.5,0.7,0.7
		c0.6,0.2,0.9,0.5,0.9,1c0,0.5-0.4,1-1.2,1c-0.3,0-0.7-0.1-0.9-0.2L17.8,11z"/>
	<path d="M22.3,10.9c0,0.3,0,0.5,0,0.7h-0.4l0-0.4h0c-0.1,0.2-0.4,0.5-0.8,0.5c-0.4,0-0.8-0.2-0.8-1.1V9.2h0.4v1.3
		c0,0.5,0.1,0.8,0.5,0.8c0.3,0,0.5-0.2,0.6-0.4c0-0.1,0-0.1,0-0.2V9.2h0.4V10.9z"/>
	<path d="M23,9.8c0-0.3,0-0.5,0-0.7h0.4l0,0.4h0c0.1-0.2,0.4-0.4,0.8-0.4c0.3,0,0.6,0.2,0.7,0.5h0c0.1-0.1,0.2-0.2,0.3-0.3
		c0.1-0.1,0.3-0.2,0.5-0.2c0.3,0,0.8,0.2,0.8,1.1v1.4h-0.4v-1.4c0-0.5-0.2-0.7-0.5-0.7c-0.2,0-0.4,0.2-0.5,0.4c0,0.1,0,0.1,0,0.2
		v1.5h-0.4v-1.5c0-0.4-0.2-0.7-0.5-0.7c-0.3,0-0.5,0.2-0.5,0.4c0,0.1,0,0.1,0,0.2v1.5H23V9.8z"/>
	<path d="M27.7,8.2v1.4h1.6V8.2h0.4v3.4h-0.4V10h-1.6v1.6h-0.4V8.2H27.7z"/>
	<path d="M30.7,10.4c0,0.6,0.4,0.8,0.8,0.8c0.3,0,0.5-0.1,0.7-0.1l0.1,0.3c-0.2,0.1-0.4,0.1-0.8,0.1c-0.7,0-1.2-0.5-1.2-1.2
		c0-0.7,0.4-1.3,1.1-1.3c0.8,0,1,0.7,1,1.1c0,0.1,0,0.2,0,0.2H30.7z M32,10.1c0-0.3-0.1-0.7-0.6-0.7c-0.4,0-0.6,0.4-0.7,0.7H32z"/>
	<path d="M33,8h0.4v3.6H33V8z"/>
	<path d="M34.7,8.5v0.7h0.6v0.3h-0.6v1.3c0,0.3,0.1,0.5,0.3,0.5c0.1,0,0.2,0,0.3,0l0,0.3c-0.1,0-0.2,0.1-0.4,0.1
		c-0.2,0-0.4-0.1-0.5-0.2c-0.1-0.1-0.2-0.3-0.2-0.6V9.5h-0.4V9.2h0.4V8.6L34.7,8.5z"/>
	<path d="M37.1,11.6l0-0.3h0c-0.1,0.2-0.4,0.4-0.7,0.4c-0.5,0-0.7-0.3-0.7-0.7c0-0.6,0.5-0.9,1.5-0.9V10c0-0.2-0.1-0.6-0.6-0.6
		c-0.2,0-0.5,0.1-0.6,0.2l-0.1-0.3c0.2-0.1,0.5-0.2,0.8-0.2c0.7,0,0.9,0.5,0.9,1V11c0,0.2,0,0.4,0,0.6H37.1z M37.1,10.3
		c-0.5,0-1,0.1-1,0.5c0,0.3,0.2,0.4,0.4,0.4c0.3,0,0.5-0.2,0.6-0.4c0,0,0-0.1,0-0.1V10.3z"/>
	<path d="M38.2,8h0.4v3.6h-0.4V8z"/>
	<path d="M39.4,8h0.4v3.6h-0.4V8z"/>
</g>
<path class="st0" d="M81.6,91.8H19.4c-6.4,0-11.6-5.2-11.6-11.6V25.6c0-6.4,5.2-11.6,11.6-11.6h62.2c6.4,0,11.6,5.2,11.6,11.6v54.6
	C93.1,86.6,88,91.8,81.6,91.8z"/>
<rect x="14.5" y="46.1" class="st0" width="72" height="35.6"/>
<line class="st0" x1="14.5" y1="46.1" x2="2.3" y2="46.1"/>
<rect x="13.7" y="42" class="st1" width="90.7" height="5.8"/>
<text transform="matrix(1 0 0 1 13.6632 44.1435)" class="st2 st3">public static void main(String[] args)</text>
<rect x="17.8" y="49.9" class="st1" width="60.8" height="27.8"/>
<text transform="matrix(1 0 0 1 17.7666 52.0586)"><tspan x="0" y="0" class="st2 st3">int a = 4;</tspan><tspan x="0" y="3.6" class="st2 st3">int b = 5;</tspan><tspan x="0" y="10.8" class="st2 st3">System.out.println(a+b);</tspan></text>
</svg>
